PathFileType	4	(X/Y/Z)	output.trc
DataRate	CameraRate	NumFrames	NumMarkers	Units	OrigDataRate	OrigDataStartFrame	OrigNumFrames
100	100	13	23	m	100	755	6039
Frame#	Time	C7			T8			EL			EM			US			RS			AA			Fore_Clus_1			Fore_Clus_2			Fore_Clus_3			Fore_Clus_4			Hum_Clus_1			Hum_Clus_2			Hum_Clus_3			Hum_Clus_4			Thor_Clus_1			Thor_Clus_2			Thor_Clus_3			Thor_Clus_4			IJ			PX			GH			Thor_Clus_5		
		X1	Y1	Z1	X2	Y2	Z2	X3	Y3	Z3	X4	Y4	Z4	X5	Y5	Z5	X6	Y6	Z6	X7	Y7	Z7	X8	Y8	Z8	X9	Y9	Z9	X10	Y10	Z10	X11	Y11	Z11	X12	Y12	Z12	X13	Y13	Z13	X14	Y14	Z14	X15	Y15	Z15	X16	Y16	Z16	X17	Y17	Z17	X18	Y18	Z18	X19	Y19	Z19	X20	Y20	Z20	X21	Y21	Z21	X22	Y22	Z22	X23	Y23	Z23
754	7.540000	-0.040499	1.443618	-0.087903	-0.034520	1.216919	-0.075399	-0.201173	1.086852	0.080852	-0.187794	1.062079	0.019487	-0.212620	0.826417	0.125929	-0.167887	0.831617	0.143566	-0.163629	1.358447	0.042214	-0.226643	0.881705	0.148862	-0.227355	0.828333	0.159196	-0.201718	0.830373	0.169985	-0.185076	0.885193	0.166044	-0.175339	1.189895	0.126807	-0.224847	1.207715	0.097084	-0.217971	1.270870	0.101852	-0.164256	1.263218	0.124467	0.088616	1.336968	0.035380	0.051576	1.291431	0.096073	0.051280	1.336354	0.059616	0.105376	1.291877	0.060360	0.021233	1.365089	-0.008695	0.062189	1.160604	0.072630	-0.131048	1.341396	0.041379	0.043726	1.311252	0.084611
755	7.550000	-0.040684	1.443562	-0.087632	-0.034659	1.216868	-0.075066	-0.200812	1.086794	0.081588	-0.187648	1.062017	0.020178	-0.211818	0.826348	0.126833	-0.166977	0.831559	0.144193	-0.163591	1.358419	0.042713	-0.225648	0.881547	0.150014	-0.226397	0.828323	0.160240	-0.200702	0.830043	0.171072	-0.184140	0.885172	0.166626	-0.174836	1.189822	0.127458	-0.224475	1.207620	0.097904	-0.217577	1.270790	0.102644	-0.163693	1.263168	0.125020	0.088630	1.336952	0.035497	0.051727	1.291486	0.096114	0.051365	1.336376	0.059781	0.105456	1.291890	0.060450	0.021187	1.365065	-0.008500	0.062299	1.160611	0.072823	-0.130944	1.341363	0.041816	0.043871	1.311299	0.084813
756	7.560000	-0.040863	1.443513	-0.087373	-0.034796	1.216824	-0.074750	-0.200468	1.086750	0.082340	-0.187532	1.061963	0.020886	-0.211040	0.826298	0.127766	-0.166089	0.831517	0.144835	-0.163553	1.358397	0.043193	-0.224923	0.881571	0.150759	-0.225517	0.828232	0.161123	-0.199649	0.830043	0.171897	-0.183186	0.885155	0.167273	-0.174310	1.189771	0.128114	-0.224092	1.207557	0.098755	-0.217188	1.270707	0.103439	-0.163323	1.263096	0.125626	0.088599	1.336920	0.035545	0.051852	1.291500	0.096271	0.051458	1.336423	0.059929	0.105532	1.291924	0.060522	0.021142	1.365046	-0.008317	0.062404	1.160619	0.073000	-0.130843	1.341333	0.042237	0.044001	1.311320	0.084964
757	7.570000	-0.041032	1.443478	-0.087123	-0.034926	1.216792	-0.074456	-0.200137	1.086718	0.083099	-0.187434	1.061916	0.021602	-0.210291	0.826265	0.128719	-0.165228	0.831492	0.145490	-0.163517	1.358381	0.043649	-0.224065	0.881560	0.151720	-0.224608	0.828197	0.162226	-0.198763	0.829999	0.172719	-0.182266	0.885131	0.167996	-0.173759	1.189774	0.128660	-0.223630	1.207500	0.099548	-0.216841	1.270661	0.104226	-0.162833	1.263095	0.126170	0.088676	1.336957	0.035653	0.051997	1.291546	0.096410	0.051545	1.336470	0.060057	0.105637	1.291959	0.060588	0.021099	1.365034	-0.008143	0.062502	1.160631	0.073160	-0.130748	1.341311	0.042644	0.044127	1.311394	0.085175
758	7.580000	-0.041190	1.443451	-0.086885	-0.035048	1.216768	-0.074180	-0.199823	1.086697	0.083860	-0.187358	1.061875	0.022323	-0.209575	0.826250	0.129684	-0.164402	0.831484	0.146153	-0.163483	1.358371	0.044077	-0.223327	0.881571	0.152759	-0.223720	0.828150	0.163074	-0.197758	0.829939	0.173637	-0.181390	0.885133	0.168673	-0.173281	1.189771	0.129297	-0.223201	1.207359	0.100391	-0.216495	1.270662	0.105025	-0.162341	1.263141	0.126749	0.088714	1.337003	0.035739	0.052124	1.291589	0.096552	0.051628	1.336478	0.060184	0.105706	1.291990	0.060656	0.021059	1.365029	-0.007977	0.062594	1.160645	0.073309	-0.130661	1.341292	0.043035	0.044202	1.311485	0.085386
759	7.590000	-0.041337	1.443430	-0.086661	-0.035159	1.216750	-0.073922	-0.199528	1.086685	0.084619	-0.187299	1.061838	0.023044	-0.208897	0.826253	0.130654	-0.163616	0.831492	0.146823	-0.163454	1.358364	0.044475	-0.222492	0.881587	0.153774	-0.222571	0.827971	0.164225	-0.196839	0.829941	0.174384	-0.180427	0.885070	0.169511	-0.172857	1.189810	0.129924	-0.222873	1.207400	0.101111	-0.216172	1.270684	0.105788	-0.161961	1.263158	0.127267	0.088745	1.337011	0.035816	0.052260	1.291619	0.096657	0.051681	1.336518	0.060300	0.105766	1.292019	0.060721	0.021020	1.365028	-0.007818	0.062677	1.160663	0.073452	-0.130583	1.341276	0.043407	0.044299	1.311481	0.085470
760	7.600000	-0.041471	1.443417	-0.086449	-0.035256	1.216739	-0.073681	-0.199248	1.086680	0.085367	-0.187248	1.061803	0.023759	-0.208257	0.826270	0.131623	-0.162873	0.831516	0.147499	-0.163432	1.358360	0.044837	-0.221721	0.881525	0.154703	-0.221757	0.827968	0.165219	-0.195892	0.829951	0.175256	-0.179599	0.885085	0.170281	-0.172474	1.189825	0.130561	-0.222664	1.207388	0.102046	-0.215882	1.270696	0.106468	-0.161621	1.263177	0.127865	0.088762	1.337038	0.035867	0.052343	1.291659	0.096794	0.051733	1.336541	0.060423	0.105838	1.292042	0.060818	0.020983	1.365033	-0.007664	0.062751	1.160685	0.073592	-0.130517	1.341265	0.043761	0.044398	1.311507	0.085591
761	7.610000	-0.041593	1.443401	-0.086255	-0.035339	1.216727	-0.073450	-0.198990	1.086679	0.086103	-0.187211	1.061768	0.024466	-0.207658	0.826303	0.132586	-0.162177	0.831555	0.148179	-0.163417	1.358354	0.045165	-0.220920	0.881533	0.156049	-0.220932	0.828065	0.166221	-0.195100	0.829996	0.176125	-0.178733	0.885115	0.171076	-0.172083	1.189844	0.131087	-0.222363	1.207420	0.102739	-0.215596	1.270679	0.107142	-0.161201	1.263203	0.128329	0.088761	1.337026	0.035965	0.052418	1.291684	0.096921	0.051771	1.336548	0.060535	0.105882	1.292071	0.060893	0.020946	1.365039	-0.007515	0.062816	1.160711	0.073738	-0.130465	1.341253	0.044094	0.044483	1.311526	0.085715
762	7.620000	-0.041702	1.443385	-0.086075	-0.035406	1.216714	-0.073232	-0.198748	1.086681	0.086817	-0.187174	1.061732	0.025157	-0.207100	0.826347	0.133537	-0.161529	0.831607	0.148862	-0.163412	1.358347	0.045455	-0.220346	0.881700	0.156818	-0.220273	0.828194	0.167272	-0.194322	0.830122	0.177045	-0.177963	0.885149	0.171838	-0.171708	1.189911	0.131683	-0.222118	1.207445	0.103431	-0.215327	1.270698	0.107772	-0.160930	1.263258	0.128789	0.088730	1.337020	0.036029	0.052460	1.291712	0.097040	0.051796	1.336563	0.060656	0.105894	1.292096	0.061009	0.020909	1.365048	-0.007369	0.062871	1.160741	0.073892	-0.130430	1.341244	0.044405	0.044534	1.311496	0.085826
763	7.630000	-0.041800	1.443362	-0.085913	-0.035458	1.216696	-0.073017	-0.198529	1.086684	0.087507	-0.187140	1.061692	0.025829	-0.206582	0.826401	0.134473	-0.160929	0.831671	0.149548	-0.163418	1.358335	0.045710	-0.219617	0.881681	0.157847	-0.219289	0.828173	0.168372	-0.193591	0.830216	0.178022	-0.177223	0.885267	0.172548	-0.171437	1.189974	0.132220	-0.221922	1.207452	0.104126	-0.215099	1.270740	0.108351	-0.160616	1.263315	0.129216	0.088686	1.337026	0.036102	0.052496	1.291753	0.097214	0.051822	1.336614	0.060807	0.105893	1.292135	0.061128	0.020871	1.365055	-0.007224	0.062916	1.160775	0.074061	-0.130412	1.341234	0.044693	0.044553	1.311548	0.085969
764	7.640000	-0.041888	1.443330	-0.085766	-0.035494	1.216668	-0.072804	-0.198330	1.086686	0.088168	-0.187105	1.061647	0.026479	-0.206104	0.826462	0.135390	-0.160377	0.831744	0.150236	-0.163435	1.358317	0.045932	-0.219021	0.881795	0.158863	-0.218642	0.828266	0.169392	-0.192829	0.830234	0.178947	-0.176532	0.885345	0.173259	-0.171159	1.190018	0.132724	-0.221708	1.207454	0.104779	-0.214924	1.270783	0.108956	-0.160321	1.263370	0.129592	0.088684	1.337064	0.036255	0.052515	1.291779	0.097377	0.051804	1.336638	0.060931	0.105884	1.292171	0.061311	0.020831	1.365059	-0.007080	0.062952	1.160813	0.074251	-0.130413	1.341222	0.044956	0.044544	1.311580	0.086085
765	7.650000	-0.041966	1.443288	-0.085633	-0.035515	1.216633	-0.072592	-0.198150	1.086686	0.088794	-0.187064	1.061598	0.027101	-0.205664	0.826527	0.136284	-0.159873	0.831825	0.150926	-0.163464	1.358294	0.046123	-0.218465	0.881884	0.159804	-0.218317	0.828500	0.170179	-0.192103	0.830295	0.179808	-0.175906	0.885453	0.173989	-0.170904	1.190073	0.133177	-0.221509	1.207492	0.105340	-0.214742	1.270819	0.109466	-0.160051	1.263425	0.129979	0.088612	1.337086	0.036365	0.052515	1.291829	0.097518	0.051747	1.336670	0.061128	0.105830	1.292236	0.061427	0.020789	1.365060	-0.006933	0.062976	1.160854	0.074462	-0.130434	1.341210	0.045196	0.044519	1.311621	0.086227
766	7.660000	-0.042038	1.443231	-0.085513	-0.035524	1.216583	-0.072372	-0.197994	1.086683	0.089387	-0.187020	1.061541	0.027696	-0.205261	0.826594	0.137152	-0.159416	0.831910	0.151614	-0.163503	1.358263	0.046288	-0.217906	0.881957	0.160726	-0.217617	0.828619	0.171285	-0.191527	0.830424	0.180472	-0.175302	0.885579	0.174678	-0.170706	1.190132	0.133593	-0.221371	1.207512	0.105861	-0.214615	1.270813	0.109923	-0.159878	1.263445	0.130328	0.088564	1.337106	0.036502	0.052487	1.291868	0.097682	0.051660	1.336676	0.061278	0.105768	1.292303	0.061652	0.020744	1.365055	-0.006782	0.062992	1.160896	0.074700	-0.130473	1.341194	0.045412	0.044496	1.311648	0.086373
